<svg width="1024" height="1024" viewBox="0 0 1024 1024" xmlns="http://www.w3.org/2000/svg">
  <defs>
    <radialGradient id="bg" cx="50%" cy="38%" r="85%">
      <stop offset="0%" stop-color="#151C45"/>
      <stop offset="60%" stop-color="#0B1029"/>
      <stop offset="100%" stop-color="#05070F"/>
    </radialGradient>
    <linearGradient id="cy" x1="0" y1="1" x2="1" y2="0">
      <stop offset="0%" stop-color="#0EA5E9"/>
      <stop offset="100%" stop-color="#7DEFFF"/>
    </linearGradient>
    <linearGradient id="pu" x1="1" y1="0" x2="0" y2="1">
      <stop offset="0%" stop-color="#A78BFA"/>
      <stop offset="100%" stop-color="#6D28D9"/>
    </linearGradient>
    <radialGradient id="halo" cx="50%" cy="50%" r="50%">
      <stop offset="0%" stop-color="#FFFFFF" stop-opacity="0.55"/>
      <stop offset="55%" stop-color="#DCEBFF" stop-opacity="0.18"/>
      <stop offset="100%" stop-color="#DCEBFF" stop-opacity="0"/>
    </radialGradient>
  </defs>

  <rect width="1024" height="1024" fill="url(#bg)"/>

  <circle cx="196" cy="186" r="6" fill="#9AA6C4" opacity="0.40"/>
  <circle cx="836" cy="222" r="7" fill="#9AA6C4" opacity="0.45"/>
  <circle cx="520" cy="112" r="4" fill="#9AA6C4" opacity="0.35"/>
  <circle cx="880" cy="560" r="4" fill="#9AA6C4" opacity="0.30"/>
  <circle cx="828" cy="836" r="6" fill="#9AA6C4" opacity="0.40"/>
  <circle cx="176" cy="792" r="5" fill="#9AA6C4" opacity="0.35"/>
  <circle cx="128" cy="470" r="4" fill="#9AA6C4" opacity="0.30"/>

  <g transform="translate(85 85)">
  <path d="M 512 512 A 170 170 0 1 1 682 342" fill="none" stroke="#22D3EE" stroke-width="190" stroke-linecap="round" opacity="0.10"/>
  <path d="M 512 512 A 170 170 0 1 0 342 682" fill="none" stroke="#8B5CF6" stroke-width="190" stroke-linecap="round" opacity="0.12"/>
  <path d="M 512 512 A 170 170 0 1 1 682 342" fill="none" stroke="#22D3EE" stroke-width="140" stroke-linecap="round" opacity="0.16"/>
  <path d="M 512 512 A 170 170 0 1 0 342 682" fill="none" stroke="#8B5CF6" stroke-width="140" stroke-linecap="round" opacity="0.18"/>

  <path d="M 512 512 A 170 170 0 1 1 682 342" fill="none" stroke="url(#cy)" stroke-width="104" stroke-linecap="round"/>
  <path d="M 512 512 A 170 170 0 1 0 342 682" fill="none" stroke="url(#pu)" stroke-width="104" stroke-linecap="round"/>

  <circle cx="512" cy="512" r="150" fill="url(#halo)"/>
  <circle cx="512" cy="512" r="38" fill="#FFFFFF"/>
  </g>
</svg>
