<svg width="1024" height="1024" viewBox="0 0 1024 1024" xmlns="http://www.w3.org/2000/svg">
  <defs>
    <linearGradient id="cy" x1="0" y1="1" x2="1" y2="0">
      <stop offset="0%" stop-color="#0EA5E9"/>
      <stop offset="100%" stop-color="#7DEFFF"/>
    </linearGradient>
    <linearGradient id="pu" x1="1" y1="0" x2="0" y2="1">
      <stop offset="0%" stop-color="#A78BFA"/>
      <stop offset="100%" stop-color="#6D28D9"/>
    </linearGradient>
    <radialGradient id="halo" cx="50%" cy="50%" r="50%">
      <stop offset="0%" stop-color="#FFFFFF" stop-opacity="0.55"/>
      <stop offset="55%" stop-color="#DCEBFF" stop-opacity="0.18"/>
      <stop offset="100%" stop-color="#DCEBFF" stop-opacity="0"/>
    </radialGradient>
  </defs>
  <g transform="translate(512 512) scale(0.74) translate(-427 -427)">
    <path d="M 512 512 A 170 170 0 1 1 682 342" fill="none" stroke="#22D3EE" stroke-width="150" stroke-linecap="round" opacity="0.14"/>
    <path d="M 512 512 A 170 170 0 1 0 342 682" fill="none" stroke="#8B5CF6" stroke-width="150" stroke-linecap="round" opacity="0.16"/>
    <path d="M 512 512 A 170 170 0 1 1 682 342" fill="none" stroke="url(#cy)" stroke-width="104" stroke-linecap="round"/>
    <path d="M 512 512 A 170 170 0 1 0 342 682" fill="none" stroke="url(#pu)" stroke-width="104" stroke-linecap="round"/>
    <circle cx="512" cy="512" r="150" fill="url(#halo)"/>
    <circle cx="512" cy="512" r="38" fill="#FFFFFF"/>
  </g>
</svg>
