<svg width="1024" height="1024" viewBox="0 0 1024 1024" xmlns="http://www.w3.org/2000/svg">
  <defs>
    <linearGradient id="b-bg" x1="0" y1="0" x2="1" y2="1">
      <stop offset="0%" stop-color="#131A3F"/>
      <stop offset="55%" stop-color="#0B1029"/>
      <stop offset="100%" stop-color="#140B33"/>
    </linearGradient>
    <linearGradient id="b-grad" x1="0" y1="0" x2="1" y2="0">
      <stop offset="0%" stop-color="#22D3EE"/>
      <stop offset="42%" stop-color="#0EA5E9"/>
      <stop offset="58%" stop-color="#8B5CF6"/>
      <stop offset="100%" stop-color="#A78BFA"/>
    </linearGradient>
    <radialGradient id="b-halo" cx="50%" cy="50%" r="50%">
      <stop offset="0%" stop-color="#FFFFFF" stop-opacity="0.6"/>
      <stop offset="55%" stop-color="#DCEBFF" stop-opacity="0.18"/>
      <stop offset="100%" stop-color="#DCEBFF" stop-opacity="0"/>
    </radialGradient>
  </defs>

  <rect width="1024" height="1024" fill="url(#b-bg)"/>

  <circle cx="196" cy="186" r="6" fill="#9AA6C4" opacity="0.40"/>
  <circle cx="836" cy="222" r="7" fill="#9AA6C4" opacity="0.45"/>
  <circle cx="520" cy="112" r="4" fill="#9AA6C4" opacity="0.35"/>
  <circle cx="880" cy="560" r="4" fill="#9AA6C4" opacity="0.30"/>
  <circle cx="828" cy="836" r="6" fill="#9AA6C4" opacity="0.40"/>
  <circle cx="176" cy="792" r="5" fill="#9AA6C4" opacity="0.35"/>
  <circle cx="128" cy="470" r="4" fill="#9AA6C4" opacity="0.30"/>

  <path d="M512 512 C412 372 192 372 192 512 C192 652 412 652 512 512 C612 372 832 372 832 512 C832 652 612 652 512 512 Z"
        fill="none" stroke="url(#b-grad)" stroke-width="190" stroke-linejoin="round" opacity="0.10"/>
  <path d="M512 512 C412 372 192 372 192 512 C192 652 412 652 512 512 C612 372 832 372 832 512 C832 652 612 652 512 512 Z"
        fill="none" stroke="url(#b-grad)" stroke-width="150" stroke-linejoin="round" opacity="0.16"/>
  <path d="M512 512 C412 372 192 372 192 512 C192 652 412 652 512 512 C612 372 832 372 832 512 C832 652 612 652 512 512 Z"
        fill="none" stroke="url(#b-grad)" stroke-width="112" stroke-linejoin="round"/>

  <circle cx="512" cy="512" r="150" fill="url(#b-halo)"/>
  <circle cx="512" cy="512" r="34" fill="#FFFFFF"/>
</svg>
