<svg width="1024" height="1024" viewBox="0 0 1024 1024" xmlns="http://www.w3.org/2000/svg">
  <defs>
    <radialGradient id="a-bg" cx="50%" cy="38%" r="85%">
      <stop offset="0%" stop-color="#151C45"/>
      <stop offset="60%" stop-color="#0B1029"/>
      <stop offset="100%" stop-color="#05070F"/>
    </radialGradient>
    <linearGradient id="a-cy" x1="0" y1="0" x2="1" y2="1">
      <stop offset="0%" stop-color="#7DEFFF"/>
      <stop offset="100%" stop-color="#0E7EE9"/>
    </linearGradient>
    <linearGradient id="a-pu" x1="1" y1="0" x2="0" y2="1">
      <stop offset="0%" stop-color="#C4B5FD"/>
      <stop offset="100%" stop-color="#6D28D9"/>
    </linearGradient>
    <radialGradient id="a-halo" cx="50%" cy="50%" r="50%">
      <stop offset="0%" stop-color="#FFFFFF" stop-opacity="0.85"/>
      <stop offset="60%" stop-color="#DCEBFF" stop-opacity="0.22"/>
      <stop offset="100%" stop-color="#DCEBFF" stop-opacity="0"/>
    </radialGradient>
  </defs>

  <rect width="1024" height="1024" fill="url(#a-bg)"/>

  <circle cx="196" cy="186" r="6" fill="#9AA6C4" opacity="0.40"/>
  <circle cx="836" cy="222" r="7" fill="#9AA6C4" opacity="0.45"/>
  <circle cx="520" cy="112" r="4" fill="#9AA6C4" opacity="0.35"/>
  <circle cx="880" cy="560" r="4" fill="#9AA6C4" opacity="0.30"/>
  <circle cx="828" cy="836" r="6" fill="#9AA6C4" opacity="0.40"/>
  <circle cx="176" cy="792" r="5" fill="#9AA6C4" opacity="0.35"/>
  <circle cx="128" cy="470" r="4" fill="#9AA6C4" opacity="0.30"/>

  <circle cx="402" cy="512" r="250" fill="none" stroke="#22D3EE" stroke-width="70" opacity="0.12"/>
  <circle cx="622" cy="512" r="250" fill="none" stroke="#8B5CF6" stroke-width="70" opacity="0.14"/>

  <circle cx="402" cy="512" r="250" fill="url(#a-cy)" opacity="0.92"/>
  <circle cx="622" cy="512" r="250" fill="url(#a-pu)" opacity="0.88"/>

  <path d="M 512 288 A 250 250 0 0 1 512 736 A 250 250 0 0 1 512 288 Z" fill="#FFFFFF" opacity="0.92"/>
  <ellipse cx="512" cy="512" rx="190" ry="290" fill="url(#a-halo)"/>
</svg>
